<?xml version="1.0" encoding="UTF-8" standalone="no"?>
<svg
   width="688.84961"
   height="882.50262"
   viewBox="0 0 688.8496 882.50262"
   version="1.1"
   id="svg2"
   sodipodi:docname="logo-inkscape.svg"
   inkscape:version="1.4.2 (ebf0e940d0, 2025-05-08)"
   xmlns:inkscape="http://www.inkscape.org/namespaces/inkscape"
   xmlns:sodipodi="http://sodipodi.sourceforge.net/DTD/sodipodi-0.dtd"
   xmlns="http://www.w3.org/2000/svg"
   xmlns:svg="http://www.w3.org/2000/svg">
  <sodipodi:namedview
     id="namedview1"
     pagecolor="#ffffff"
     bordercolor="#000000"
     borderopacity="0.25"
     inkscape:showpageshadow="2"
     inkscape:pageopacity="0.0"
     inkscape:pagecheckerboard="0"
     inkscape:deskcolor="#d1d1d1"
     inkscape:zoom="0.48385125"
     inkscape:cx="343.08065"
     inkscape:cy="441.25131"
     inkscape:window-width="1216"
     inkscape:window-height="613"
     inkscape:window-x="0"
     inkscape:window-y="0"
     inkscape:window-maximized="1"
     inkscape:current-layer="svg2" />
  <defs
     id="defs2" />
  <path
     d="m 279.73202,1.2906778 c -4.291,0.721 -9.901,2.299 -12.469,3.505 -2.567,1.207 -5.63,2.56 -6.806,3.008 -9.413,3.5780002 -23.748,16.7130002 -29.981,27.4710002 -6.355,10.968 -8.397,16.46 -10.966,29.5 -1.849,9.383 -1.859,14.618 -0.048,23.5 3.913,19.183002 9.353,30.537002 20.452,42.681002 5.834,6.383 17.876,14.823 24.802,17.383 2.649,0.979 5.379,2.208 6.066,2.731 0.953,0.724 1.25,8.374 1.25,32.205 0,34.65 -0.757,40.95 -6.236,51.911 -5.216,10.434 -14.171,18.622 -28.871,26.4 -4.066,2.152 -9.643,5.177 -12.393,6.724 -4.244,2.386 -18.575,10.146 -58,31.404 -3.85,2.076 -12.4,6.605 -19,10.065 -6.6,3.46 -12.45,6.612 -13,7.005 -0.55,0.393 -6.4,3.542 -13,6.997 -6.6,3.455 -14.25,7.507 -17,9.004 -2.75,1.498 -8.033002,4.349 -11.739002,6.337 -13.816,7.409 -24.719,14.725 -34.261,22.986 -29.608,25.635 -49.7469999,61.671 -56.4709999,101.047 -2.26800004,13.278 -2.76700004,37.778 -0.981,48.12 0.57,3.3 1.495,8.7 2.055,12 2.634,15.507 13.6439999,41.446 24.3629999,57.395 10.451,15.55 18.5,24.368 34.534,37.834 19.349,16.25 49.249002,29.006 84.000002,35.836 4.675,0.919 11.65,2.553 15.5,3.63 3.85,1.078 9.475,2.621 12.5,3.43 3.025,0.809 8.425,2.628 12,4.043 3.575,1.415 8.75,3.458 11.5,4.54 21.386,8.413 39.588,20.654 57.537,38.696 16.564,16.649 26.62,31.832 34.502,52.096 6.468,16.628 7.951,28.912 8.935,74 0.738,33.811 1.105,35.699 8.139,41.891 11.146,9.811 28.585,6.894 36.166,-6.049 l 2.542,-4.342 0.09,-73.5 c 0.094,-77.329 -0.002,-75.463 4.733,-92.228 6.651,-23.548 23.608,-44.675 45.925,-57.215 5.737,-3.224 11.351,-6.418 12.475,-7.097 2.325,-1.406 28.15,-15.697 36.456,-20.174 3.025,-1.631 9.1,-4.906 13.5,-7.278 15.388,-8.297 51.065,-27.809 58.5,-31.995 4.125,-2.322 9.75,-5.461 12.5,-6.975 2.75,-1.514 9.05,-5 14,-7.746 8.341,-4.628 19.558,-10.76 25.5,-13.941 3.353,-1.795 5.269,-1.695 8.115,0.425 8.011,5.967 23.576,10.224 37.385,10.224 34.819,0 64.554,-23.071 72.51,-56.26 7.7,-32.116 -9.858,-68.001 -40.162,-82.083 -12.971,-6.028 -17.942,-7.116 -32.348,-7.083 -14.358,0.033 -19.696,1.202 -31.639,6.925 -16.435,7.877 -30.289,22.482 -35.75,37.688 -5.121,14.262 -5.892,23.575 -3.544,42.813 0.523,4.28 0.388,4.591 -2.759,6.362 -1.819,1.024 -10.508,5.804 -19.308,10.623 -8.8,4.818 -22.525,12.35 -30.5,16.738 -14.016,7.71 -20.447,11.21 -34.75,18.911 -3.712,1.999 -13.95,7.56 -22.75,12.358 -16.692,9.1 -38.976,21.109 -53.5,28.833 -9.341,4.966 -22.27,13.188 -28.5,18.123 -5.601,4.436 -18.438,17.04 -22.628,22.216 -7.783,9.617 -16.869,25.447 -20.426,35.586 -1.012,2.888 -2.422,5.25 -3.131,5.25 -0.709,0 -2.416,-1.687 -3.792,-3.75 -1.376,-2.062 -3.266,-4.875 -4.201,-6.25 -9.419,-13.856 -14.37,-23.278 -18.918,-36 -5.892,-16.481 -7.919,-39.461 -4.896,-55.5 1.501,-7.963 1.819,-9.025 5.832,-19.5 5.413,-14.129 18.134,-30.068 31.366,-39.301 5.177,-3.612 27.306,-15.928 49.313,-27.445 6.336,-3.316 14.211,-7.483 17.5,-9.26 20.968,-11.327 30.105,-16.342 30.981,-17.004 0.55,-0.416 6.4,-3.576 13,-7.021 6.6,-3.445 14.925,-7.831 18.5,-9.745 17.059,-9.134 21.797,-11.655 25.5,-13.569 17.534,-9.063 35.714,-25.527 47.653,-43.155 12.699,-18.749 19.14,-36.659 23.378,-65 0.329,-2.2 0.788,-4.953 1.019,-6.117 0.294,-1.475 2.924,-3.39 8.686,-6.321 27.448,-13.963 43.724,-39.857 43.724,-69.562 0,-22.099 -8.857,-42.09 -25.312,-57.128 -18.739,-17.126 -44.95,-24.734 -68.659,-19.93 -4.631,0.938 -8.885,2 -9.454,2.359 -0.569,0.36 -3.107,1.36 -5.638,2.223 -7.452,2.541 -18.62,9.853 -25.819,16.906 -13.079,12.814 -19.827,26.099 -22.637,44.57 -1.374,9.028 -1.367,11.054 0.066,20.84 0.874,5.962 1.976,11.587 2.451,12.5 0.474,0.913 2.021,4.488 3.439,7.945 5.19,12.661 13.973,23.543 25.502,31.598 7.038,4.917 19.785,11.617 22.104,11.617 1.283,0 1.257,4.806 -0.072,13 -3.527,21.747 -14.868,39.292 -35.047,54.222 -3.413,2.525 -46.257,25.778 -47.496,25.778 -0.319,0 -1.774,0.84 -3.234,1.866 -1.46,1.027 -11.204,6.268 -21.654,11.647 -10.45,5.38 -23.725,12.358 -29.5,15.508 -5.775,3.15 -15.9,8.559 -22.5,12.019 -6.6,3.461 -13.567,7.342 -15.482,8.626 -1.915,1.284 -3.77,2.334 -4.122,2.334 -1.121,0 -19.153,10.494 -25.896,15.071 -3.575,2.426 -11.9,9.821 -18.5,16.434 -16.17,16.199 -24.228,29.137 -32.12,51.571 -3.963,11.264 -7.354,31.623 -7.369,44.241 -0.011,8.876 3.132,32.299 4.989,37.184 2.466,6.485 1.101,6.824 -8.56,2.121 -8.605,-4.188 -26.422,-11.138 -32.44,-12.653 -2.475,-0.624 -6.979,-1.937 -10.009,-2.918 -3.031,-0.982 -11.806,-2.98 -19.5,-4.441 -27.47,-5.215 -43.274,-11.004 -58.991002,-21.61 -26.519,-17.895 -43.205,-44.891 -47.911,-77.515 -2.069,-14.34 -1.998,-22.539 0.312,-35.985 4.871,-28.359 20.834,-55.545 43.467,-74.025 11.489002,-9.382 15.083002,-11.394 123.132002,-68.954 45.254,-24.108 50.834,-27.271 58.815,-33.341 22.698,-17.262 36.155,-37.648 42.364,-64.18 1.496,-6.394 1.768,-12.943 1.842,-44.411 l 0.087,-36.911 8.325,-4.318 c 9.854,-5.113 13.776,-7.958 20.794,-15.091 12.534,-12.738 19.27,-27.228 21.236,-45.684002 2.783,-26.127 -9.055,-53.192 -30.244,-69.144 -17.268,-13.0010002 -38.157,-17.7680002 -61.019,-13.9250002 m 4.339,48.5980002 c -7.923,2.409 -13.451,9.498 -16.677,21.386 -2.134,7.862 1.047,19.829 7.001,26.336 3.178,3.473002 12.411,7.481002 18.376,7.975002 7.39,0.613 16.2,-2.817 21.914,-8.531002 8.395,-8.395 10.425,-21.893 4.835,-32.139 -3.176,-5.82 -8.599,-11.017 -14.343,-13.743 -4.334,-2.057 -16.191,-2.778 -21.106,-1.284 m 216.465,164.398002 c -7.998,3.288 -10.273,5.094 -15.004,11.916 -3.995,5.76 -4,5.779 -3.989,15.419 0.01,9.138 0.181,9.92 3.205,14.653 6.248,9.777 14.686,14.53 25.643,14.444 15.002,-0.117 25.962,-8.593 29.217,-22.593 3.459,-14.88 -5.322,-29.144 -21.576,-35.049 -5.266,-1.914 -10.834,-1.528 -17.496,1.21 m 108.996,246.423 c -4.723,1.15 -8.701,3.585 -12.632,7.733 -5.459,5.758 -7.324,10.6 -7.246,18.81 0.08,8.564 3.197,14.765 10.052,20 17.106,13.06 42.79,-0.65 41.082,-21.93 -1.315,-16.375 -16.376,-28.235 -31.256,-24.613"
     stroke="none"
     fill="#060606"
     fill-rule="evenodd"
     id="path1"
     style="display:inline;fill:#008080" />
</svg>
